<svg width="38" height="53" viewBox="0 0 38 53" fill="none" xmlns="http://www.w3.org/2000/svg">
<path d="M1 1.05662C7.57484 1.05662 14.3137 0.210907 19.4444 5.05662C24.1028 9.45622 27.2222 14.5567 27.9444 21.0566C29.0492 30.9993 28.6672 41.1666 24.2222 50.0566C22.3912 53.7187 23 51.2282 23 48.5011C23 44.2109 23.3236 39.624 21.5 35.6122C20.218 32.7917 19.8815 32.962 20 36.2788C20.1338 40.0246 22.3122 48.216 24.5 51.2788C24.6409 51.4762 26.3275 47.0194 26.5556 46.5011C28.1573 42.8608 30.5638 39.411 33 36.2788C36.5132 31.7618 38.2989 30.3633 34.7778 36.2788C31.3189 42.0897 27.0332 45.5151 23 50.5566C22.7126 50.9158 19.7551 39.3218 19 37.0566" stroke="#3F18B0" stroke-linecap="round"/>
</svg>
